<svg xmlns="http://www.w3.org/2000/svg" viewBox="0 0 420.03 183.91"><defs><style>.cls-1{fill:#dbdbdb;}.cls-1,.cls-2,.cls-3,.cls-6{stroke:#231f20;}.cls-1,.cls-2,.cls-3,.cls-6,.cls-7{stroke-miterlimit:10;}.cls-2{fill:#c7c7c7;}.cls-3,.cls-7{fill:none;stroke-width:0.28px;}.cls-4,.cls-5{fill:#231f20;}.cls-5{font-size:12px;font-family:MyriadPro-Regular, Myriad Pro;}.cls-6{fill:#858585;}.cls-7{stroke:#fff;}</style></defs><title>Asset 2</title><g id="Layer_2" data-name="Layer 2"><g id="Layer_1-2" data-name="Layer 1"><circle class="cls-1" cx="210.01" cy="84.26" r="68.78"/><circle class="cls-2" cx="210.01" cy="84.26" r="36.23"/><line class="cls-3" x1="122.94" y1="104.81" x2="84.78" y2="170.01"/><path class="cls-4" d="M121.05,103.83a2.13,2.13,0,1,1,.76,2.92A2.12,2.12,0,0,1,121.05,103.83Z"/><line class="cls-3" x1="182.45" y1="88.14" x2="134.79" y2="169.55"/><path class="cls-4" d="M180.56,87.15a2.13,2.13,0,1,1,.76,2.92A2.13,2.13,0,0,1,180.56,87.15Z"/><line class="cls-3" x1="153.08" y1="94.72" x2="109.61" y2="168.98"/><path class="cls-4" d="M151.19,93.73a2.13,2.13,0,1,1,.76,2.92A2.13,2.13,0,0,1,151.19,93.73Z"/><text class="cls-5" transform="translate(153.54 180.91)">A</text><text class="cls-5" transform="translate(78.01 180.91)">D</text><text class="cls-5" transform="translate(128.52 180.91)">B</text><text class="cls-5" transform="translate(103.18 180.91)">C</text><circle class="cls-6" cx="210.01" cy="84.26" r="10.12"/><line class="cls-3" x1="205.89" y1="88.71" x2="157.97" y2="170.55"/><path class="cls-4" d="M204,87.72a2.13,2.13,0,1,1,.77,2.92A2.14,2.14,0,0,1,204,87.72Z"/><rect class="cls-7" x="0.14" y="0.14" width="419.74" height="180.77"/></g></g></svg>